<svg width="156" height="41" viewBox="0 0 156 41" fill="none" xmlns="http://www.w3.org/2000/svg">
<rect width="156" height="41" rx="6" fill="#101010"/>
<path d="M27.347 28.38C26.563 27.4653 25.9703 26.4713 25.569 25.398C25.177 24.3247 24.981 23.1813 24.981 21.968C24.981 20.7547 25.177 19.6113 25.569 18.538C25.961 17.4647 26.5536 16.4753 27.347 15.57H28.887C28.215 16.5687 27.711 17.6047 27.375 18.678C27.0483 19.742 26.885 20.8387 26.885 21.968C26.885 23.0973 27.053 24.1987 27.389 25.272C27.725 26.3453 28.2243 27.3813 28.887 28.38H27.347ZM30.0336 26V24.558L32.8616 21.604C33.4216 21.016 33.851 20.5493 34.1496 20.204C34.4576 19.8493 34.6723 19.546 34.7936 19.294C34.915 19.042 34.9756 18.7853 34.9756 18.524C34.9756 18.0853 34.8356 17.74 34.5556 17.488C34.285 17.236 33.935 17.11 33.5056 17.11C33.0576 17.11 32.6703 17.2407 32.3436 17.502C32.017 17.754 31.779 18.1273 31.6296 18.622L29.9636 18.104C30.0756 17.5533 30.3043 17.0773 30.6496 16.676C30.995 16.2653 31.415 15.9527 31.9096 15.738C32.4136 15.514 32.9456 15.402 33.5056 15.402C34.1776 15.402 34.7656 15.5233 35.2696 15.766C35.783 16.0087 36.1796 16.3493 36.4596 16.788C36.749 17.2267 36.8936 17.74 36.8936 18.328C36.8936 18.7013 36.8236 19.07 36.6836 19.434C36.5436 19.798 36.3336 20.1713 36.0536 20.554C35.7736 20.9273 35.4096 21.3473 34.9616 21.814L32.5116 24.39H37.0336V26H30.0336ZM41.8452 26.168C41.2758 26.168 40.7345 26.0653 40.2212 25.86C39.7172 25.6453 39.2832 25.3467 38.9192 24.964C38.5645 24.572 38.3218 24.11 38.1912 23.578L39.8572 22.99C40.0252 23.466 40.2818 23.83 40.6272 24.082C40.9725 24.3247 41.3785 24.446 41.8452 24.446C42.2185 24.446 42.5405 24.376 42.8112 24.236C43.0912 24.096 43.3105 23.8953 43.4692 23.634C43.6278 23.3633 43.7072 23.046 43.7072 22.682C43.7072 22.318 43.6278 22.01 43.4692 21.758C43.3198 21.4967 43.1052 21.296 42.8252 21.156C42.5452 21.016 42.2138 20.946 41.8312 20.946C41.6538 20.946 41.4672 20.9647 41.2712 21.002C41.0845 21.0393 40.9165 21.0953 40.7672 21.17L40.3332 20.26L43.0352 17.18H38.7792V15.57H45.1772V17.068L42.4612 20.246L42.4892 19.532C43.1145 19.5413 43.6605 19.6767 44.1272 19.938C44.5938 20.1993 44.9578 20.5587 45.2192 21.016C45.4805 21.4733 45.6112 22.01 45.6112 22.626C45.6112 23.298 45.4478 23.9047 45.1212 24.446C44.7945 24.978 44.3465 25.398 43.7772 25.706C43.2078 26.014 42.5638 26.168 41.8452 26.168ZM47.6178 26L51.1598 21.436L51.4818 21.772C51.3418 21.8747 51.2064 21.9587 51.0758 22.024C50.9451 22.0893 50.8051 22.136 50.6558 22.164C50.5064 22.192 50.3478 22.206 50.1798 22.206C49.5451 22.206 48.9804 22.0613 48.4858 21.772C47.9911 21.4827 47.5991 21.0907 47.3098 20.596C47.0298 20.092 46.8898 19.5227 46.8898 18.888C46.8898 18.216 47.0438 17.6187 47.3518 17.096C47.6691 16.5733 48.0984 16.1627 48.6398 15.864C49.1904 15.556 49.8158 15.402 50.5158 15.402C51.2251 15.402 51.8504 15.5513 52.3918 15.85C52.9331 16.1487 53.3578 16.5593 53.6658 17.082C53.9831 17.5953 54.1418 18.188 54.1418 18.86C54.1418 19.196 54.1044 19.532 54.0298 19.868C53.9551 20.204 53.8198 20.5633 53.6238 20.946C53.4371 21.3193 53.1664 21.744 52.8118 22.22L49.8998 26H47.6178ZM50.5158 20.61C50.8424 20.61 51.1318 20.54 51.3838 20.4C51.6451 20.2507 51.8504 20.0453 51.9998 19.784C52.1491 19.5133 52.2238 19.21 52.2238 18.874C52.2238 18.5193 52.1444 18.2113 51.9858 17.95C51.8364 17.6887 51.6358 17.4833 51.3838 17.334C51.1318 17.1847 50.8424 17.11 50.5158 17.11C50.1984 17.11 49.9091 17.1847 49.6478 17.334C49.3864 17.4833 49.1764 17.6887 49.0178 17.95C48.8684 18.2113 48.7938 18.5193 48.7938 18.874C48.7938 19.21 48.8684 19.5133 49.0178 19.784C49.1764 20.0453 49.3864 20.2507 49.6478 20.4C49.9091 20.54 50.1984 20.61 50.5158 20.61ZM55.2416 28.38C55.9043 27.3813 56.399 26.3453 56.7256 25.272C57.0616 24.1987 57.2296 23.0973 57.2296 21.968C57.2296 20.8387 57.0616 19.742 56.7256 18.678C56.399 17.6047 55.9043 16.5687 55.2416 15.57H56.7816C57.5656 16.4753 58.1536 17.4647 58.5456 18.538C58.9376 19.6113 59.1336 20.7547 59.1336 21.968C59.1336 23.1813 58.9376 24.3247 58.5456 25.398C58.1536 26.4713 57.5656 27.4653 56.7816 28.38H55.2416ZM66.6746 26.168C66.1239 26.168 65.5966 26.0653 65.0926 25.86C64.5979 25.6547 64.1686 25.3653 63.8046 24.992C63.4499 24.6093 63.2073 24.1567 63.0766 23.634L64.7286 23.046C64.8873 23.522 65.1439 23.8767 65.4986 24.11C65.8533 24.334 66.2453 24.446 66.6746 24.446C67.0293 24.446 67.3419 24.3713 67.6126 24.222C67.8926 24.0633 68.1073 23.8487 68.2566 23.578C68.4059 23.298 68.4806 22.976 68.4806 22.612C68.4806 22.248 68.4013 21.9307 68.2426 21.66C68.0933 21.3893 67.8833 21.1793 67.6126 21.03C67.3419 20.8713 67.0293 20.792 66.6746 20.792C66.3106 20.792 65.9793 20.8713 65.6806 21.03C65.3913 21.1887 65.1813 21.4173 65.0506 21.716L63.4966 21.366L64.3226 15.57H70.0066V17.18H65.0786L65.7926 16.354L65.2046 20.722L64.6586 20.274C64.9199 19.8913 65.2373 19.6113 65.6106 19.434C65.9933 19.2567 66.4553 19.168 66.9966 19.168C67.6873 19.168 68.2846 19.3173 68.7886 19.616C69.3019 19.9147 69.6986 20.3207 69.9786 20.834C70.2586 21.3473 70.3986 21.94 70.3986 22.612C70.3986 23.284 70.2353 23.8907 69.9086 24.432C69.5819 24.9733 69.1386 25.398 68.5786 25.706C68.0186 26.014 67.3839 26.168 66.6746 26.168ZM75.2879 26.168C74.7372 26.168 74.2099 26.0653 73.7059 25.86C73.2112 25.6547 72.7819 25.3653 72.4179 24.992C72.0632 24.6093 71.8205 24.1567 71.6899 23.634L73.3419 23.046C73.5005 23.522 73.7572 23.8767 74.1119 24.11C74.4665 24.334 74.8585 24.446 75.2879 24.446C75.6425 24.446 75.9552 24.3713 76.2259 24.222C76.5059 24.0633 76.7205 23.8487 76.8699 23.578C77.0192 23.298 77.0939 22.976 77.0939 22.612C77.0939 22.248 77.0145 21.9307 76.8559 21.66C76.7065 21.3893 76.4965 21.1793 76.2259 21.03C75.9552 20.8713 75.6425 20.792 75.2879 20.792C74.9239 20.792 74.5925 20.8713 74.2939 21.03C74.0045 21.1887 73.7945 21.4173 73.6639 21.716L72.1099 21.366L72.9359 15.57H78.6199V17.18H73.6919L74.4059 16.354L73.8179 20.722L73.2719 20.274C73.5332 19.8913 73.8505 19.6113 74.2239 19.434C74.6065 19.2567 75.0685 19.168 75.6099 19.168C76.3005 19.168 76.8979 19.3173 77.4019 19.616C77.9152 19.9147 78.3119 20.3207 78.5919 20.834C78.8719 21.3473 79.0119 21.94 79.0119 22.612C79.0119 23.284 78.8485 23.8907 78.5219 24.432C78.1952 24.9733 77.7519 25.398 77.1919 25.706C76.6319 26.014 75.9972 26.168 75.2879 26.168ZM83.9012 26.168C83.3505 26.168 82.8232 26.0653 82.3192 25.86C81.8245 25.6547 81.3952 25.3653 81.0312 24.992C80.6765 24.6093 80.4338 24.1567 80.3032 23.634L81.9552 23.046C82.1138 23.522 82.3705 23.8767 82.7252 24.11C83.0798 24.334 83.4718 24.446 83.9012 24.446C84.2558 24.446 84.5685 24.3713 84.8392 24.222C85.1192 24.0633 85.3338 23.8487 85.4832 23.578C85.6325 23.298 85.7072 22.976 85.7072 22.612C85.7072 22.248 85.6278 21.9307 85.4692 21.66C85.3198 21.3893 85.1098 21.1793 84.8392 21.03C84.5685 20.8713 84.2558 20.792 83.9012 20.792C83.5372 20.792 83.2058 20.8713 82.9072 21.03C82.6178 21.1887 82.4078 21.4173 82.2772 21.716L80.7232 21.366L81.5492 15.57H87.2332V17.18H82.3052L83.0192 16.354L82.4312 20.722L81.8852 20.274C82.1465 19.8913 82.4638 19.6113 82.8372 19.434C83.2198 19.2567 83.6818 19.168 84.2232 19.168C84.9138 19.168 85.5112 19.3173 86.0152 19.616C86.5285 19.9147 86.9252 20.3207 87.2052 20.834C87.4852 21.3473 87.6252 21.94 87.6252 22.612C87.6252 23.284 87.4618 23.8907 87.1352 24.432C86.8085 24.9733 86.3652 25.398 85.8052 25.706C85.2452 26.014 84.6105 26.168 83.9012 26.168ZM89.8264 23.284V21.702H96.1264V23.284H89.8264ZM102.555 26.168C101.724 26.168 100.996 25.944 100.371 25.496C99.7453 25.048 99.2553 24.418 98.9006 23.606C98.5553 22.794 98.3826 21.8513 98.3826 20.778C98.3826 19.6953 98.5553 18.7527 98.9006 17.95C99.246 17.1473 99.7313 16.522 100.357 16.074C100.982 15.626 101.71 15.402 102.541 15.402C103.39 15.402 104.123 15.626 104.739 16.074C105.364 16.522 105.854 17.152 106.209 17.964C106.563 18.7667 106.741 19.7047 106.741 20.778C106.741 21.8513 106.563 22.794 106.209 23.606C105.863 24.4087 105.378 25.0387 104.753 25.496C104.127 25.944 103.395 26.168 102.555 26.168ZM102.569 24.432C103.045 24.432 103.451 24.2873 103.787 23.998C104.123 23.6993 104.379 23.2793 104.557 22.738C104.743 22.1873 104.837 21.534 104.837 20.778C104.837 20.022 104.743 19.3733 104.557 18.832C104.379 18.2813 104.118 17.8613 103.773 17.572C103.437 17.2827 103.026 17.138 102.541 17.138C102.074 17.138 101.673 17.2827 101.337 17.572C101.001 17.8613 100.739 18.2813 100.553 18.832C100.375 19.3733 100.287 20.022 100.287 20.778C100.287 21.5247 100.375 22.1733 100.553 22.724C100.739 23.2653 101.001 23.6853 101.337 23.984C101.682 24.2827 102.093 24.432 102.569 24.432ZM109.933 26V17.194H107.917V15.57H111.837V26H109.933ZM118.113 26.168C117.283 26.168 116.555 25.944 115.929 25.496C115.304 25.048 114.814 24.418 114.459 23.606C114.114 22.794 113.941 21.8513 113.941 20.778C113.941 19.6953 114.114 18.7527 114.459 17.95C114.805 17.1473 115.29 16.522 115.915 16.074C116.541 15.626 117.269 15.402 118.099 15.402C118.949 15.402 119.681 15.626 120.297 16.074C120.923 16.522 121.413 17.152 121.767 17.964C122.122 18.7667 122.299 19.7047 122.299 20.778C122.299 21.8513 122.122 22.794 121.767 23.606C121.422 24.4087 120.937 25.0387 120.311 25.496C119.686 25.944 118.953 26.168 118.113 26.168ZM118.127 24.432C118.603 24.432 119.009 24.2873 119.345 23.998C119.681 23.6993 119.938 23.2793 120.115 22.738C120.302 22.1873 120.395 21.534 120.395 20.778C120.395 20.022 120.302 19.3733 120.115 18.832C119.938 18.2813 119.677 17.8613 119.331 17.572C118.995 17.2827 118.585 17.138 118.099 17.138C117.633 17.138 117.231 17.2827 116.895 17.572C116.559 17.8613 116.298 18.2813 116.111 18.832C115.934 19.3733 115.845 20.022 115.845 20.778C115.845 21.5247 115.934 22.1733 116.111 22.724C116.298 23.2653 116.559 23.6853 116.895 23.984C117.241 24.2827 117.651 24.432 118.127 24.432ZM127.493 26.168C126.737 26.168 126.079 26.028 125.519 25.748C124.969 25.4587 124.539 25.0713 124.231 24.586C123.933 24.1007 123.783 23.5687 123.783 22.99C123.783 22.3087 123.965 21.7347 124.329 21.268C124.693 20.792 125.221 20.442 125.911 20.218L125.799 20.68C125.305 20.5213 124.913 20.2133 124.623 19.756C124.343 19.2987 124.203 18.7947 124.203 18.244C124.203 17.6933 124.343 17.2033 124.623 16.774C124.903 16.3447 125.291 16.0087 125.785 15.766C126.28 15.5233 126.849 15.402 127.493 15.402C128.128 15.402 128.688 15.5233 129.173 15.766C129.668 16.0087 130.055 16.3447 130.335 16.774C130.625 17.2033 130.769 17.6933 130.769 18.244C130.769 18.804 130.625 19.3127 130.335 19.77C130.055 20.218 129.668 20.526 129.173 20.694L129.075 20.204C129.766 20.4467 130.293 20.806 130.657 21.282C131.021 21.7487 131.203 22.3227 131.203 23.004C131.203 23.5827 131.049 24.1147 130.741 24.6C130.443 25.076 130.013 25.4587 129.453 25.748C128.903 26.028 128.249 26.168 127.493 26.168ZM127.493 24.558C127.857 24.558 128.175 24.4927 128.445 24.362C128.716 24.222 128.926 24.0307 129.075 23.788C129.225 23.536 129.299 23.2513 129.299 22.934C129.299 22.6073 129.225 22.3273 129.075 22.094C128.926 21.8513 128.716 21.6647 128.445 21.534C128.175 21.394 127.857 21.324 127.493 21.324C127.129 21.324 126.812 21.394 126.541 21.534C126.28 21.6647 126.075 21.8513 125.925 22.094C125.776 22.3273 125.701 22.6073 125.701 22.934C125.701 23.2513 125.776 23.536 125.925 23.788C126.075 24.0307 126.28 24.222 126.541 24.362C126.812 24.4927 127.129 24.558 127.493 24.558ZM127.493 19.714C127.764 19.714 128.002 19.6533 128.207 19.532C128.413 19.4107 128.571 19.252 128.683 19.056C128.805 18.8507 128.865 18.6173 128.865 18.356C128.865 18.0947 128.805 17.866 128.683 17.67C128.571 17.4647 128.413 17.306 128.207 17.194C128.002 17.0727 127.764 17.012 127.493 17.012C127.223 17.012 126.98 17.0727 126.765 17.194C126.56 17.306 126.397 17.4647 126.275 17.67C126.163 17.866 126.107 18.0947 126.107 18.356C126.107 18.6173 126.163 18.8507 126.275 19.056C126.397 19.252 126.56 19.4107 126.765 19.532C126.98 19.6533 127.223 19.714 127.493 19.714Z" fill="white"/>
</svg>
